<svg width="54" height="54" viewBox="0 0 54 54" fill="none" xmlns="http://www.w3.org/2000/svg">
<g clip-path="url(#clip0_220_978)">
<path d="M0 0H54V54H0V0Z" fill="#FAFAFA"/>
<g filter="url(#filter0_f_220_978)">
<rect x="47.7666" y="-4.47656" width="9.12642" height="83.2495" transform="rotate(60 47.7666 -4.47656)" fill="url(#paint0_linear_220_978)"/>
</g>
<g filter="url(#filter1_f_220_978)">
<rect x="65.6801" y="16.2861" width="9.12642" height="83.2495" transform="rotate(60 65.6801 16.2861)" fill="url(#paint1_linear_220_978)"/>
<rect x="65.6801" y="16.2861" width="9.12642" height="83.2495" transform="rotate(60 65.6801 16.2861)" fill="white" fill-opacity="0.5"/>
</g>
<g filter="url(#filter2_f_220_978)">
<rect x="-23.2707" y="37.1487" width="9.12642" height="83.2495" transform="rotate(-120 -23.2707 37.1487)" fill="url(#paint2_linear_220_978)"/>
<rect x="-23.2707" y="37.1487" width="9.12642" height="83.2495" transform="rotate(-120 -23.2707 37.1487)" fill="white" fill-opacity="0.5"/>
</g>
<g filter="url(#filter3_f_220_978)">
<rect x="-6.4184" y="57.5217" width="9.12642" height="83.2495" transform="rotate(-120 -6.4184 57.5217)" fill="url(#paint3_linear_220_978)"/>
</g>
<g filter="url(#filter4_f_220_978)">
<rect x="-14.3107" y="52.4026" width="9.12642" height="83.2495" transform="rotate(-120 -14.3107 52.4026)" fill="url(#paint4_linear_220_978)"/>
<rect x="-14.3107" y="52.4026" width="9.12642" height="83.2495" transform="rotate(-120 -14.3107 52.4026)" fill="white" fill-opacity="0.5"/>
</g>
<g filter="url(#filter5_f_220_978)">
<rect x="3.59955" y="73.1653" width="9.12642" height="83.2495" transform="rotate(-120 3.59955 73.1653)" fill="url(#paint5_linear_220_978)"/>
</g>
<g filter="url(#filter6_dddddd_220_978)">
<rect width="12.7895" height="12.7895" transform="matrix(0.866025 0.5 -2.20305e-08 1 15.9207 20.605)" fill="#4248FB"/>
<rect width="12.7895" height="12.7895" transform="matrix(0.866025 -0.5 2.20305e-08 1 26.9965 27.0002)" fill="#0009FF"/>
<rect width="12.7895" height="12.7895" transform="matrix(0.866025 0.5 -0.866025 0.5 26.9965 14.2104)" fill="#377BFE"/>
</g>
<g filter="url(#filter7_dddddd_220_978)">
<rect width="6.8242" height="6.8242" transform="matrix(0.866025 0.5 -2.20305e-08 1 42.1772 15.0264)" fill="#37F378"/>
<rect width="6.8242" height="6.8242" transform="matrix(0.866025 -0.5 2.20305e-08 1 48.0899 18.4375)" fill="#14E35C"/>
<rect width="6.8242" height="6.8242" transform="matrix(0.866025 0.5 -0.866025 0.5 48.0899 11.6135)" fill="#6DFE9F"/>
</g>
<g filter="url(#filter8_dddddd_220_978)">
<rect width="3.46285" height="3.46285" transform="matrix(0.866025 0.5 -2.20305e-08 1 31.5647 8.83691)" fill="#FFAE61"/>
<rect width="3.46285" height="3.46285" transform="matrix(0.866025 -0.5 2.20305e-08 1 34.5665 10.5681)" fill="#F09844"/>
<rect width="3.46285" height="3.46285" transform="matrix(0.866025 0.5 -0.866025 0.5 34.5665 7.10498)" fill="#FFBE7E"/>
</g>
<g filter="url(#filter9_dddddd_220_978)">
<rect width="4.98547" height="4.98547" transform="matrix(0.866025 0.5 -2.20305e-08 1 40.1922 1.00366)" fill="#4248FB"/>
<rect width="4.98547" height="4.98547" transform="matrix(0.866025 -0.5 2.20305e-08 1 44.5115 3.49585)" fill="#0009FF"/>
<rect width="4.98547" height="4.98547" transform="matrix(0.866025 0.5 -0.866025 0.5 44.5115 -1.48975)" fill="#377BFE"/>
</g>
<g filter="url(#filter10_dddddd_220_978)">
<rect width="3.46285" height="3.46285" transform="matrix(0.866025 0.5 -2.20305e-08 1 15.4709 41.5212)" fill="#FFAE61"/>
<rect width="3.46285" height="3.46285" transform="matrix(0.866025 -0.5 2.20305e-08 1 18.4728 43.2527)" fill="#F09844"/>
<rect width="3.46285" height="3.46285" transform="matrix(0.866025 0.5 -0.866025 0.5 18.4728 39.7896)" fill="#FFBE7E"/>
</g>
<g filter="url(#filter11_dddddd_220_978)">
<rect width="6.89243" height="6.89243" transform="matrix(0.866025 0.5 -2.20305e-08 1 -2.01935 36.3445)" fill="#EAEBFA"/>
<rect width="6.89243" height="6.89243" transform="matrix(0.866025 -0.5 2.20305e-08 1 3.95178 39.7896)" fill="#D2D3F4"/>
<rect width="6.89243" height="6.89243" transform="matrix(0.866025 0.5 -0.866025 0.5 3.95178 32.8972)" fill="#F8F8FA"/>
</g>
<rect x="7.09723" y="7.19995" width="17.8072" height="4.63083" rx="2.31542" fill="#971FBA"/>
<path d="M8.68327 10.5154V9.13902H9.84547V10.5154H9.53274V9.40515H8.99331V10.5154H8.68327ZM10.7794 10.5423C10.645 10.5423 10.5285 10.5127 10.4299 10.4536C10.3314 10.3944 10.2549 10.3117 10.2005 10.2053C10.1468 10.099 10.1199 9.97475 10.1199 9.83258C10.1199 9.6904 10.1468 9.56585 10.2005 9.45892C10.2549 9.35198 10.3314 9.26895 10.4299 9.20981C10.5285 9.15067 10.645 9.1211 10.7794 9.1211C10.9138 9.1211 11.0303 9.15067 11.1289 9.20981C11.2274 9.26895 11.3036 9.35198 11.3574 9.45892C11.4117 9.56585 11.4389 9.6904 11.4389 9.83258C11.4389 9.97475 11.4117 10.099 11.3574 10.2053C11.3036 10.3117 11.2274 10.3944 11.1289 10.4536C11.0303 10.5127 10.9138 10.5423 10.7794 10.5423ZM10.7812 10.2824C10.8541 10.2824 10.915 10.2624 10.964 10.2224C11.013 10.1817 11.0494 10.1274 11.0733 10.0593C11.0978 9.99118 11.11 9.91531 11.11 9.83168C11.11 9.74745 11.0978 9.67128 11.0733 9.60318C11.0494 9.53448 11.013 9.47982 10.964 9.4392C10.915 9.39858 10.8541 9.37827 10.7812 9.37827C10.7065 9.37827 10.6444 9.39858 10.5948 9.4392C10.5458 9.47982 10.5091 9.53448 10.4846 9.60318C10.4607 9.67128 10.4487 9.74745 10.4487 9.83168C10.4487 9.91531 10.4607 9.99118 10.4846 10.0593C10.5091 10.1274 10.5458 10.1817 10.5948 10.2224C10.6444 10.2624 10.7065 10.2824 10.7812 10.2824ZM11.5924 10.915V10.2484H11.7017C11.7309 10.2257 11.7554 10.1949 11.7752 10.1561C11.7949 10.1166 11.811 10.0703 11.8235 10.0172C11.8367 9.9634 11.8474 9.90337 11.8558 9.83706C11.8642 9.77015 11.8716 9.69817 11.8782 9.6211L11.9176 9.13902H12.9123V10.2484H13.1255V10.915H12.8119V10.5154H11.9114V10.915H11.5924ZM12.035 10.2484H12.6022V9.40067H12.199L12.1775 9.6211C12.1655 9.76686 12.1497 9.89172 12.13 9.99566C12.1103 10.0996 12.0786 10.1838 12.035 10.2484ZM13.2458 10.915V10.2484H13.3551C13.3844 10.2257 13.4089 10.1949 13.4286 10.1561C13.4483 10.1166 13.4645 10.0703 13.477 10.0172C13.4902 9.9634 13.5009 9.90337 13.5093 9.83706C13.5176 9.77015 13.5251 9.69817 13.5317 9.6211L13.5711 9.13902H14.5657V10.2484H14.779V10.915H14.4654V10.5154H13.5648V10.915H13.2458ZM13.6885 10.2484H14.2557V9.40067H13.8525L13.831 9.6211C13.819 9.76686 13.8032 9.89172 13.7835 9.99566C13.7638 10.0996 13.7321 10.1838 13.6885 10.2484ZM15.6305 10.5423C15.4925 10.5423 15.3733 10.5136 15.273 10.4562C15.1732 10.3983 15.0964 10.3165 15.0427 10.2107C14.9889 10.1044 14.962 9.97923 14.962 9.83526C14.962 9.69369 14.9889 9.56943 15.0427 9.4625C15.097 9.35497 15.1729 9.27134 15.2703 9.2116C15.3676 9.15127 15.482 9.1211 15.6135 9.1211C15.6983 9.1211 15.7783 9.13484 15.8536 9.16232C15.9295 9.1892 15.9964 9.23102 16.0543 9.28777C16.1129 9.34452 16.1589 9.4168 16.1923 9.50462C16.2258 9.59183 16.2425 9.69578 16.2425 9.81645V9.91591H15.1144V9.69727H15.9316C15.931 9.63514 15.9175 9.57989 15.8912 9.5315C15.865 9.48251 15.8282 9.44398 15.781 9.4159C15.7344 9.38783 15.6801 9.37379 15.6179 9.37379C15.5516 9.37379 15.4934 9.38992 15.4432 9.42218C15.393 9.45384 15.3539 9.49565 15.3258 9.54763C15.2983 9.599 15.2843 9.65545 15.2837 9.71698V9.90785C15.2837 9.9879 15.2983 10.0566 15.3276 10.1139C15.3569 10.1707 15.3978 10.2143 15.4504 10.2448C15.503 10.2746 15.5645 10.2896 15.635 10.2896C15.6822 10.2896 15.7249 10.283 15.7631 10.2699C15.8013 10.2561 15.8345 10.2361 15.8626 10.2098C15.8906 10.1835 15.9119 10.151 15.9262 10.1121L16.2291 10.1462C16.2099 10.2262 16.1735 10.2961 16.1197 10.3559C16.0666 10.415 15.9985 10.461 15.9154 10.4939C15.8324 10.5261 15.7374 10.5423 15.6305 10.5423ZM16.5169 11.0315V9.13902H16.8359V9.36662H16.8547C16.8715 9.33317 16.8951 9.29762 16.9255 9.25999C16.956 9.22176 16.9972 9.1892 17.0492 9.16232C17.1012 9.13484 17.1675 9.1211 17.2481 9.1211C17.3545 9.1211 17.4503 9.14828 17.5358 9.20264C17.6218 9.2564 17.6899 9.33615 17.7401 9.44189C17.7908 9.54703 17.8162 9.67606 17.8162 9.82899C17.8162 9.98013 17.7914 10.1086 17.7419 10.2143C17.6923 10.32 17.6248 10.4007 17.5393 10.4562C17.4539 10.5118 17.3571 10.5396 17.249 10.5396C17.1702 10.5396 17.1047 10.5264 17.0528 10.5001C17.0008 10.4739 16.959 10.4422 16.9273 10.4052C16.8963 10.3675 16.8721 10.332 16.8547 10.2985H16.8413V11.0315H16.5169ZM16.835 9.8272C16.835 9.91621 16.8476 9.99417 16.8727 10.0611C16.8984 10.128 16.9351 10.1803 16.9829 10.2179C17.0313 10.2549 17.0898 10.2734 17.1585 10.2734C17.2302 10.2734 17.2902 10.2543 17.3386 10.2161C17.387 10.1773 17.4235 10.1244 17.4479 10.0575C17.473 9.98999 17.4856 9.91322 17.4856 9.8272C17.4856 9.74177 17.4733 9.66591 17.4488 9.5996C17.4243 9.53329 17.3879 9.48132 17.3395 9.44368C17.2911 9.40605 17.2308 9.38723 17.1585 9.38723C17.0892 9.38723 17.0304 9.40545 16.982 9.44189C16.9336 9.47833 16.8969 9.52941 16.8718 9.59512C16.8473 9.66083 16.835 9.73819 16.835 9.8272ZM17.9527 10.5154L18.4607 9.8048L17.9571 9.13902H18.3317L18.7233 9.69369H18.8003V9.13902H19.1247V9.69369H19.2L19.5916 9.13902H19.9661L19.4652 9.8048L19.9706 10.5154H19.588L19.1964 9.95982H19.1247V10.5154H18.8003V9.95982H18.7286L18.3353 10.5154H17.9527ZM20.2132 10.5154V9.13902H20.5376V9.69458H20.6559L21.0699 9.13902H21.4605L20.9507 9.81466L21.4659 10.5154H21.0734L20.6962 9.99656H20.5376V10.5154H20.2132ZM22.0459 10.5432C21.9587 10.5432 21.8801 10.5276 21.8102 10.4966C21.7409 10.4649 21.686 10.4183 21.6454 10.3568C21.6053 10.2952 21.5853 10.2194 21.5853 10.1292C21.5853 10.0515 21.5997 9.9873 21.6283 9.93652C21.657 9.88574 21.6961 9.84512 21.7457 9.81466C21.7953 9.78419 21.8511 9.76119 21.9133 9.74566C21.976 9.72953 22.0408 9.71788 22.1077 9.71071C22.1884 9.70235 22.2538 9.69488 22.304 9.68831C22.3541 9.68114 22.3906 9.67039 22.4133 9.65605C22.4366 9.64112 22.4482 9.61812 22.4482 9.58705V9.58168C22.4482 9.51417 22.4282 9.4619 22.3882 9.42487C22.3482 9.38783 22.2905 9.36931 22.2153 9.36931C22.1358 9.36931 22.0728 9.38663 22.0262 9.42128C21.9802 9.45593 21.9491 9.49685 21.933 9.54404L21.6301 9.50103C21.654 9.4174 21.6934 9.3475 21.7484 9.29135C21.8034 9.2346 21.8706 9.19219 21.95 9.16411C22.0295 9.13544 22.1173 9.1211 22.2135 9.1211C22.2798 9.1211 22.3458 9.12886 22.4115 9.1444C22.4772 9.15993 22.5372 9.18561 22.5916 9.22146C22.646 9.2567 22.6896 9.30479 22.7224 9.36572C22.7559 9.42666 22.7726 9.50282 22.7726 9.59422V10.5154H22.4608V10.3263H22.45C22.4303 10.3645 22.4025 10.4004 22.3667 10.4338C22.3314 10.4667 22.2869 10.4933 22.2332 10.5136C22.18 10.5333 22.1176 10.5432 22.0459 10.5432ZM22.1301 10.3048C22.1952 10.3048 22.2517 10.292 22.2995 10.2663C22.3473 10.24 22.384 10.2053 22.4097 10.1623C22.436 10.1193 22.4491 10.0724 22.4491 10.0216V9.85946C22.439 9.86782 22.4216 9.87559 22.3972 9.88276C22.3733 9.88992 22.3464 9.8962 22.3165 9.90157C22.2866 9.90695 22.2571 9.91173 22.2278 9.91591C22.1985 9.92009 22.1731 9.92368 22.1516 9.92666C22.1032 9.93323 22.0599 9.94399 22.0217 9.95892C21.9835 9.97386 21.9533 9.99476 21.9312 10.0216C21.9091 10.0479 21.898 10.082 21.898 10.1238C21.898 10.1835 21.9198 10.2286 21.9635 10.2591C22.0071 10.2896 22.0626 10.3048 22.1301 10.3048Z" fill="white"/>
<g clip-path="url(#clip1_220_978)">
<path d="M-3.02454 10.2077C-3.02454 3.05904 2.77059 -2.73608 9.91925 -2.73608H43.3597C50.5083 -2.73608 56.3035 3.05904 56.3035 10.2077V56.5919H-3.02454V10.2077Z" fill="#FEFEFF"/>
<g filter="url(#filter12_dddddd_220_978)">
<path d="M24.728 32.7828C24.754 30.9093 24.9687 29.5432 25.372 28.6845C25.7753 27.8258 26.5365 26.889 27.6554 25.8742C28.7482 24.8854 29.5874 23.9682 30.1729 23.1225C30.7584 22.2768 31.0511 21.3726 31.0511 20.4098C31.0511 19.2389 30.6608 18.2631 29.8802 17.4824C29.0995 16.7018 28.0066 16.3115 26.6015 16.3115C25.2484 16.3115 24.2076 16.6953 23.479 17.4629C22.7504 18.2305 22.217 19.0307 21.8787 19.8634L18.6 18.4192C19.1725 16.884 20.1418 15.5764 21.5079 14.4965C22.874 13.4166 24.5719 12.8767 26.6015 12.8767C29.2036 12.8767 31.2072 13.5988 32.6124 15.043C34.0175 16.4871 34.7201 18.224 34.7201 20.2537C34.7201 21.5027 34.4534 22.6346 33.9199 23.6494C33.3865 24.6642 32.5343 25.7311 31.3634 26.85C30.0883 28.073 29.3207 29.0098 29.0605 29.6603C28.8003 30.3108 28.6572 31.3517 28.6312 32.7828H24.728ZM26.6015 42.5407C25.8469 42.5407 25.2029 42.274 24.6694 41.7406C24.136 41.2071 23.8693 40.5631 23.8693 39.8085C23.8693 39.0539 24.136 38.4099 24.6694 37.8764C25.2029 37.343 25.8469 37.0763 26.6015 37.0763C27.3561 37.0763 28.0001 37.343 28.5336 37.8764C29.067 38.4099 29.3337 39.0539 29.3337 39.8085C29.3337 40.5631 29.067 41.2071 28.5336 41.7406C28.0001 42.274 27.3561 42.5407 26.6015 42.5407Z" fill="#6D28D9"/>
</g>
<path fill-rule="evenodd" clip-rule="evenodd" d="M45.033 6.75659H38.4151C38.0396 6.75659 37.6795 6.90575 37.414 7.17124C37.1485 7.43674 36.9994 7.79683 36.9994 8.17231C36.9994 8.54778 37.1485 8.90787 37.414 9.17337C37.6795 9.43886 38.0396 9.58802 38.4151 9.58802H44.5725V16.4107C44.5725 16.7862 44.7217 17.1463 44.9872 17.4118C45.2527 17.6773 45.6127 17.8265 45.9882 17.8265C46.3637 17.8265 46.7238 17.6773 46.9892 17.4118C47.2547 17.1463 47.4039 16.7862 47.4039 16.4107V9.21277C47.413 8.57328 47.1689 7.95613 46.7247 7.49598C46.2806 7.03584 45.6724 6.77004 45.033 6.75659V6.75659ZM7.88378 17.69C8.25787 17.6856 8.61539 17.535 8.87993 17.2704C9.14447 17.0059 9.29505 16.6484 9.29948 16.2743V9.58802H15.0817C15.4571 9.58802 15.8172 9.43886 16.0827 9.17337C16.3482 8.90787 16.4974 8.54778 16.4974 8.17231C16.4974 7.79683 16.3482 7.43674 16.0827 7.17124C15.8172 6.90575 15.4571 6.75659 15.0817 6.75659H8.83895C8.19954 6.77004 7.59141 7.03584 7.14725 7.49598C6.70308 7.95613 6.45893 8.57328 6.46808 9.21277V16.2743C6.46808 17.0555 7.10259 17.69 7.88378 17.69ZM14.8429 44.8615H9.29948V38.5846C9.29948 38.2091 9.15032 37.849 8.88483 37.5835C8.61933 37.318 8.25925 37.1689 7.88378 37.1689C7.50831 37.1689 7.14822 37.318 6.88273 37.5835C6.61724 37.849 6.46808 38.2091 6.46808 38.5846V45.2367C6.45893 45.8762 6.70308 46.4934 7.14725 46.9535C7.59141 47.4137 8.19954 47.6795 8.83895 47.6929H14.8429C15.2183 47.6929 15.5784 47.5437 15.8439 47.2782C16.1094 47.0127 16.2586 46.6527 16.2586 46.2772C16.2586 45.9017 16.1094 45.5416 15.8439 45.2761C15.5784 45.0106 15.2183 44.8615 14.8429 44.8615V44.8615ZM45.9882 36.8277C45.6127 36.8277 45.2527 36.9769 44.9872 37.2424C44.7217 37.5079 44.5725 37.868 44.5725 38.2434V44.8615H40.4107C40.0352 44.8615 39.6751 45.0106 39.4096 45.2761C39.1442 45.5416 38.995 45.9017 38.995 46.2772C38.995 46.6527 39.1442 47.0127 39.4096 47.2782C39.6751 47.5437 40.0352 47.6929 40.4107 47.6929H45.033C45.6724 47.6795 46.2806 47.4137 46.7247 46.9535C47.1689 46.4934 47.413 45.8762 47.4039 45.2367V38.2434C47.4039 37.868 47.2547 37.5079 46.9892 37.2424C46.7238 36.9769 46.3637 36.8277 45.9882 36.8277V36.8277Z" fill="#6D28D9"/>
</g>
</g>
<defs>
<filter id="filter0_f_220_978" x="-37.1191" y="-17.266" width="102.238" height="75.1075" filterUnits="userSpaceOnUse" color-interpolation-filters="sRGB">
<feFlood flood-opacity="0" result="BackgroundImageFix"/>
<feBlend mode="normal" in="SourceGraphic" in2="BackgroundImageFix" result="shape"/>
<feGaussianBlur stdDeviation="6.39474" result="effect1_foregroundBlur_220_978"/>
</filter>
<filter id="filter1_f_220_978" x="-13.9951" y="8.70719" width="91.8173" height="64.6865" filterUnits="userSpaceOnUse" color-interpolation-filters="sRGB">
<feFlood flood-opacity="0" result="BackgroundImageFix"/>
<feBlend mode="normal" in="SourceGraphic" in2="BackgroundImageFix" result="shape"/>
<feGaussianBlur stdDeviation="3.78947" result="effect1_foregroundBlur_220_978"/>
</filter>
<filter id="filter2_f_220_978" x="-35.4129" y="-19.9588" width="91.8173" height="64.6865" filterUnits="userSpaceOnUse" color-interpolation-filters="sRGB">
<feFlood flood-opacity="0" result="BackgroundImageFix"/>
<feBlend mode="normal" in="SourceGraphic" in2="BackgroundImageFix" result="shape"/>
<feGaussianBlur stdDeviation="3.78947" result="effect1_foregroundBlur_220_978"/>
</filter>
<filter id="filter3_f_220_978" x="-23.7711" y="-4.79631" width="102.238" height="75.1075" filterUnits="userSpaceOnUse" color-interpolation-filters="sRGB">
<feFlood flood-opacity="0" result="BackgroundImageFix"/>
<feBlend mode="normal" in="SourceGraphic" in2="BackgroundImageFix" result="shape"/>
<feGaussianBlur stdDeviation="6.39474" result="effect1_foregroundBlur_220_978"/>
</filter>
<filter id="filter4_f_220_978" x="-26.4528" y="-4.70492" width="91.8173" height="64.6865" filterUnits="userSpaceOnUse" color-interpolation-filters="sRGB">
<feFlood flood-opacity="0" result="BackgroundImageFix"/>
<feBlend mode="normal" in="SourceGraphic" in2="BackgroundImageFix" result="shape"/>
<feGaussianBlur stdDeviation="3.78947" result="effect1_foregroundBlur_220_978"/>
</filter>
<filter id="filter5_f_220_978" x="-13.7532" y="10.8472" width="102.238" height="75.1075" filterUnits="userSpaceOnUse" color-interpolation-filters="sRGB">
<feFlood flood-opacity="0" result="BackgroundImageFix"/>
<feBlend mode="normal" in="SourceGraphic" in2="BackgroundImageFix" result="shape"/>
<feGaussianBlur stdDeviation="6.39474" result="effect1_foregroundBlur_220_978"/>
</filter>
<filter id="filter6_dddddd_220_978" x="-3.97427" y="9.94729" width="61.9415" height="65.3688" filterUnits="userSpaceOnUse" color-interpolation-filters="sRGB">
<feFlood flood-opacity="0" result="BackgroundImageFix"/>
<feColorMatrix in="SourceAlpha" type="matrix" values="0 0 0 0 0 0 0 0 0 0 0 0 0 0 0 0 0 0 127 0" result="hardAlpha"/>
<feOffset dy="0.891773"/>
<feGaussianBlur stdDeviation="0.275269"/>
<feColorMatrix type="matrix" values="0 0 0 0 0.0196078 0 0 0 0 0.254902 0 0 0 0 0.854902 0 0 0 0.0787208 0"/>
<feBlend mode="normal" in2="BackgroundImageFix" result="effect1_dropShadow_220_978"/>
<feColorMatrix in="SourceAlpha" type="matrix" values="0 0 0 0 0 0 0 0 0 0 0 0 0 0 0 0 0 0 127 0" result="hardAlpha"/>
<feOffset dy="1.59491"/>
<feGaussianBlur stdDeviation="0.66151"/>
<feColorMatrix type="matrix" values="0 0 0 0 0.0196078 0 0 0 0 0.254902 0 0 0 0 0.854902 0 0 0 0.11309 0"/>
<feBlend mode="normal" in2="effect1_dropShadow_220_978" result="effect2_dropShadow_220_978"/>
<feColorMatrix in="SourceAlpha" type="matrix" values="0 0 0 0 0 0 0 0 0 0 0 0 0 0 0 0 0 0 127 0" result="hardAlpha"/>
<feOffset dy="2.24955"/>
<feGaussianBlur stdDeviation="1.24557"/>
<feColorMatrix type="matrix" values="0 0 0 0 0.0196078 0 0 0 0 0.254902 0 0 0 0 0.854902 0 0 0 0.14 0"/>
<feBlend mode="normal" in2="effect2_dropShadow_220_978" result="effect3_dropShadow_220_978"/>
<feColorMatrix in="SourceAlpha" type="matrix" values="0 0 0 0 0 0 0 0 0 0 0 0 0 0 0 0 0 0 127 0" result="hardAlpha"/>
<feOffset dy="3.18978"/>
<feGaussianBlur stdDeviation="2.22187"/>
<feColorMatrix type="matrix" values="0 0 0 0 0.0196078 0 0 0 0 0.254902 0 0 0 0 0.854902 0 0 0 0.16691 0"/>
<feBlend mode="normal" in2="effect3_dropShadow_220_978" result="effect4_dropShadow_220_978"/>
<feColorMatrix in="SourceAlpha" type="matrix" values="0 0 0 0 0 0 0 0 0 0 0 0 0 0 0 0 0 0 127 0" result="hardAlpha"/>
<feOffset dy="5.41498"/>
<feGaussianBlur stdDeviation="4.15577"/>
<feColorMatrix type="matrix" values="0 0 0 0 0.0196078 0 0 0 0 0.254902 0 0 0 0 0.854902 0 0 0 0.201279 0"/>
<feBlend mode="normal" in2="effect4_dropShadow_220_978" result="effect5_dropShadow_220_978"/>
<feColorMatrix in="SourceAlpha" type="matrix" values="0 0 0 0 0 0 0 0 0 0 0 0 0 0 0 0 0 0 127 0" result="hardAlpha"/>
<feOffset dy="15.6316"/>
<feGaussianBlur stdDeviation="9.94737"/>
<feColorMatrix type="matrix" values="0 0 0 0 0.0196078 0 0 0 0 0.254902 0 0 0 0 0.854902 0 0 0 0.28 0"/>
<feBlend mode="normal" in2="effect5_dropShadow_220_978" result="effect6_dropShadow_220_978"/>
<feBlend mode="normal" in="SourceGraphic" in2="effect6_dropShadow_220_978" result="shape"/>
</filter>
<filter id="filter7_dddddd_220_978" x="31.5618" y="9.33879" width="33.0535" height="34.88" filterUnits="userSpaceOnUse" color-interpolation-filters="sRGB">
<feFlood flood-opacity="0" result="BackgroundImageFix"/>
<feColorMatrix in="SourceAlpha" type="matrix" values="0 0 0 0 0 0 0 0 0 0 0 0 0 0 0 0 0 0 127 0" result="hardAlpha"/>
<feOffset dy="0.475832"/>
<feGaussianBlur stdDeviation="0.146878"/>
<feColorMatrix type="matrix" values="0 0 0 0 0.0784314 0 0 0 0 0.890196 0 0 0 0 0.360784 0 0 0 0.0787208 0"/>
<feBlend mode="normal" in2="BackgroundImageFix" result="effect1_dropShadow_220_978"/>
<feColorMatrix in="SourceAlpha" type="matrix" values="0 0 0 0 0 0 0 0 0 0 0 0 0 0 0 0 0 0 127 0" result="hardAlpha"/>
<feOffset dy="0.85101"/>
<feGaussianBlur stdDeviation="0.352968"/>
<feColorMatrix type="matrix" values="0 0 0 0 0.0784314 0 0 0 0 0.890196 0 0 0 0 0.360784 0 0 0 0.11309 0"/>
<feBlend mode="normal" in2="effect1_dropShadow_220_978" result="effect2_dropShadow_220_978"/>
<feColorMatrix in="SourceAlpha" type="matrix" values="0 0 0 0 0 0 0 0 0 0 0 0 0 0 0 0 0 0 127 0" result="hardAlpha"/>
<feOffset dy="1.20031"/>
<feGaussianBlur stdDeviation="0.664608"/>
<feColorMatrix type="matrix" values="0 0 0 0 0.0784314 0 0 0 0 0.890196 0 0 0 0 0.360784 0 0 0 0.14 0"/>
<feBlend mode="normal" in2="effect2_dropShadow_220_978" result="effect3_dropShadow_220_978"/>
<feColorMatrix in="SourceAlpha" type="matrix" values="0 0 0 0 0 0 0 0 0 0 0 0 0 0 0 0 0 0 127 0" result="hardAlpha"/>
<feOffset dy="1.702"/>
<feGaussianBlur stdDeviation="1.18555"/>
<feColorMatrix type="matrix" values="0 0 0 0 0.0784314 0 0 0 0 0.890196 0 0 0 0 0.360784 0 0 0 0.16691 0"/>
<feBlend mode="normal" in2="effect3_dropShadow_220_978" result="effect4_dropShadow_220_978"/>
<feColorMatrix in="SourceAlpha" type="matrix" values="0 0 0 0 0 0 0 0 0 0 0 0 0 0 0 0 0 0 127 0" result="hardAlpha"/>
<feOffset dy="2.88932"/>
<feGaussianBlur stdDeviation="2.21744"/>
<feColorMatrix type="matrix" values="0 0 0 0 0.0784314 0 0 0 0 0.890196 0 0 0 0 0.360784 0 0 0 0.201279 0"/>
<feBlend mode="normal" in2="effect4_dropShadow_220_978" result="effect5_dropShadow_220_978"/>
<feColorMatrix in="SourceAlpha" type="matrix" values="0 0 0 0 0 0 0 0 0 0 0 0 0 0 0 0 0 0 127 0" result="hardAlpha"/>
<feOffset dy="8.34069"/>
<feGaussianBlur stdDeviation="5.30772"/>
<feColorMatrix type="matrix" values="0 0 0 0 0.0784314 0 0 0 0 0.890196 0 0 0 0 0.360784 0 0 0 0.28 0"/>
<feBlend mode="normal" in2="effect5_dropShadow_220_978" result="effect6_dropShadow_220_978"/>
<feBlend mode="normal" in="SourceGraphic" in2="effect6_dropShadow_220_978" result="shape"/>
</filter>
<filter id="filter8_dddddd_220_978" x="26.178" y="5.9507" width="16.774" height="17.6996" filterUnits="userSpaceOnUse" color-interpolation-filters="sRGB">
<feFlood flood-opacity="0" result="BackgroundImageFix"/>
<feColorMatrix in="SourceAlpha" type="matrix" values="0 0 0 0 0 0 0 0 0 0 0 0 0 0 0 0 0 0 127 0" result="hardAlpha"/>
<feOffset dy="0.241454"/>
<feGaussianBlur stdDeviation="0.0745312"/>
<feColorMatrix type="matrix" values="0 0 0 0 0.941176 0 0 0 0 0.596078 0 0 0 0 0.266667 0 0 0 0.0787208 0"/>
<feBlend mode="normal" in2="BackgroundImageFix" result="effect1_dropShadow_220_978"/>
<feColorMatrix in="SourceAlpha" type="matrix" values="0 0 0 0 0 0 0 0 0 0 0 0 0 0 0 0 0 0 127 0" result="hardAlpha"/>
<feOffset dy="0.431833"/>
<feGaussianBlur stdDeviation="0.179109"/>
<feColorMatrix type="matrix" values="0 0 0 0 0.941176 0 0 0 0 0.596078 0 0 0 0 0.266667 0 0 0 0.11309 0"/>
<feBlend mode="normal" in2="effect1_dropShadow_220_978" result="effect2_dropShadow_220_978"/>
<feColorMatrix in="SourceAlpha" type="matrix" values="0 0 0 0 0 0 0 0 0 0 0 0 0 0 0 0 0 0 127 0" result="hardAlpha"/>
<feOffset dy="0.609082"/>
<feGaussianBlur stdDeviation="0.337246"/>
<feColorMatrix type="matrix" values="0 0 0 0 0.941176 0 0 0 0 0.596078 0 0 0 0 0.266667 0 0 0 0.14 0"/>
<feBlend mode="normal" in2="effect2_dropShadow_220_978" result="effect3_dropShadow_220_978"/>
<feColorMatrix in="SourceAlpha" type="matrix" values="0 0 0 0 0 0 0 0 0 0 0 0 0 0 0 0 0 0 127 0" result="hardAlpha"/>
<feOffset dy="0.863656"/>
<feGaussianBlur stdDeviation="0.601589"/>
<feColorMatrix type="matrix" values="0 0 0 0 0.941176 0 0 0 0 0.596078 0 0 0 0 0.266667 0 0 0 0.16691 0"/>
<feBlend mode="normal" in2="effect3_dropShadow_220_978" result="effect4_dropShadow_220_978"/>
<feColorMatrix in="SourceAlpha" type="matrix" values="0 0 0 0 0 0 0 0 0 0 0 0 0 0 0 0 0 0 127 0" result="hardAlpha"/>
<feOffset dy="1.46615"/>
<feGaussianBlur stdDeviation="1.12521"/>
<feColorMatrix type="matrix" values="0 0 0 0 0.941176 0 0 0 0 0.596078 0 0 0 0 0.266667 0 0 0 0.201279 0"/>
<feBlend mode="normal" in2="effect4_dropShadow_220_978" result="effect5_dropShadow_220_978"/>
<feColorMatrix in="SourceAlpha" type="matrix" values="0 0 0 0 0 0 0 0 0 0 0 0 0 0 0 0 0 0 127 0" result="hardAlpha"/>
<feOffset dy="4.23237"/>
<feGaussianBlur stdDeviation="2.69332"/>
<feColorMatrix type="matrix" values="0 0 0 0 0.941176 0 0 0 0 0.596078 0 0 0 0 0.266667 0 0 0 0.28 0"/>
<feBlend mode="normal" in2="effect5_dropShadow_220_978" result="effect6_dropShadow_220_978"/>
<feBlend mode="normal" in="SourceGraphic" in2="effect6_dropShadow_220_978" result="shape"/>
</filter>
<filter id="filter9_dddddd_220_978" x="32.437" y="-3.15157" width="24.1473" height="25.482" filterUnits="userSpaceOnUse" color-interpolation-filters="sRGB">
<feFlood flood-opacity="0" result="BackgroundImageFix"/>
<feColorMatrix in="SourceAlpha" type="matrix" values="0 0 0 0 0 0 0 0 0 0 0 0 0 0 0 0 0 0 127 0" result="hardAlpha"/>
<feOffset dy="0.347623"/>
<feGaussianBlur stdDeviation="0.107303"/>
<feColorMatrix type="matrix" values="0 0 0 0 0.0196078 0 0 0 0 0.254902 0 0 0 0 0.854902 0 0 0 0.0787208 0"/>
<feBlend mode="normal" in2="BackgroundImageFix" result="effect1_dropShadow_220_978"/>
<feColorMatrix in="SourceAlpha" type="matrix" values="0 0 0 0 0 0 0 0 0 0 0 0 0 0 0 0 0 0 127 0" result="hardAlpha"/>
<feOffset dy="0.621712"/>
<feGaussianBlur stdDeviation="0.257864"/>
<feColorMatrix type="matrix" values="0 0 0 0 0.0196078 0 0 0 0 0.254902 0 0 0 0 0.854902 0 0 0 0.11309 0"/>
<feBlend mode="normal" in2="effect1_dropShadow_220_978" result="effect2_dropShadow_220_978"/>
<feColorMatrix in="SourceAlpha" type="matrix" values="0 0 0 0 0 0 0 0 0 0 0 0 0 0 0 0 0 0 127 0" result="hardAlpha"/>
<feOffset dy="0.876898"/>
<feGaussianBlur stdDeviation="0.485534"/>
<feColorMatrix type="matrix" values="0 0 0 0 0.0196078 0 0 0 0 0.254902 0 0 0 0 0.854902 0 0 0 0.14 0"/>
<feBlend mode="normal" in2="effect2_dropShadow_220_978" result="effect3_dropShadow_220_978"/>
<feColorMatrix in="SourceAlpha" type="matrix" values="0 0 0 0 0 0 0 0 0 0 0 0 0 0 0 0 0 0 127 0" result="hardAlpha"/>
<feOffset dy="1.24341"/>
<feGaussianBlur stdDeviation="0.866111"/>
<feColorMatrix type="matrix" values="0 0 0 0 0.0196078 0 0 0 0 0.254902 0 0 0 0 0.854902 0 0 0 0.16691 0"/>
<feBlend mode="normal" in2="effect3_dropShadow_220_978" result="effect4_dropShadow_220_978"/>
<feColorMatrix in="SourceAlpha" type="matrix" values="0 0 0 0 0 0 0 0 0 0 0 0 0 0 0 0 0 0 127 0" result="hardAlpha"/>
<feOffset dy="2.11082"/>
<feGaussianBlur stdDeviation="1.61996"/>
<feColorMatrix type="matrix" values="0 0 0 0 0.0196078 0 0 0 0 0.254902 0 0 0 0 0.854902 0 0 0 0.201279 0"/>
<feBlend mode="normal" in2="effect4_dropShadow_220_978" result="effect5_dropShadow_220_978"/>
<feColorMatrix in="SourceAlpha" type="matrix" values="0 0 0 0 0 0 0 0 0 0 0 0 0 0 0 0 0 0 127 0" result="hardAlpha"/>
<feOffset dy="6.09336"/>
<feGaussianBlur stdDeviation="3.87759"/>
<feColorMatrix type="matrix" values="0 0 0 0 0.0196078 0 0 0 0 0.254902 0 0 0 0 0.854902 0 0 0 0.28 0"/>
<feBlend mode="normal" in2="effect5_dropShadow_220_978" result="effect6_dropShadow_220_978"/>
<feBlend mode="normal" in="SourceGraphic" in2="effect6_dropShadow_220_978" result="shape"/>
</filter>
<filter id="filter10_dddddd_220_978" x="10.0843" y="38.6353" width="16.774" height="17.6993" filterUnits="userSpaceOnUse" color-interpolation-filters="sRGB">
<feFlood flood-opacity="0" result="BackgroundImageFix"/>
<feColorMatrix in="SourceAlpha" type="matrix" values="0 0 0 0 0 0 0 0 0 0 0 0 0 0 0 0 0 0 127 0" result="hardAlpha"/>
<feOffset dy="0.241454"/>
<feGaussianBlur stdDeviation="0.0745312"/>
<feColorMatrix type="matrix" values="0 0 0 0 0.941176 0 0 0 0 0.596078 0 0 0 0 0.266667 0 0 0 0.0787208 0"/>
<feBlend mode="normal" in2="BackgroundImageFix" result="effect1_dropShadow_220_978"/>
<feColorMatrix in="SourceAlpha" type="matrix" values="0 0 0 0 0 0 0 0 0 0 0 0 0 0 0 0 0 0 127 0" result="hardAlpha"/>
<feOffset dy="0.431833"/>
<feGaussianBlur stdDeviation="0.179109"/>
<feColorMatrix type="matrix" values="0 0 0 0 0.941176 0 0 0 0 0.596078 0 0 0 0 0.266667 0 0 0 0.11309 0"/>
<feBlend mode="normal" in2="effect1_dropShadow_220_978" result="effect2_dropShadow_220_978"/>
<feColorMatrix in="SourceAlpha" type="matrix" values="0 0 0 0 0 0 0 0 0 0 0 0 0 0 0 0 0 0 127 0" result="hardAlpha"/>
<feOffset dy="0.609082"/>
<feGaussianBlur stdDeviation="0.337246"/>
<feColorMatrix type="matrix" values="0 0 0 0 0.941176 0 0 0 0 0.596078 0 0 0 0 0.266667 0 0 0 0.14 0"/>
<feBlend mode="normal" in2="effect2_dropShadow_220_978" result="effect3_dropShadow_220_978"/>
<feColorMatrix in="SourceAlpha" type="matrix" values="0 0 0 0 0 0 0 0 0 0 0 0 0 0 0 0 0 0 127 0" result="hardAlpha"/>
<feOffset dy="0.863656"/>
<feGaussianBlur stdDeviation="0.601589"/>
<feColorMatrix type="matrix" values="0 0 0 0 0.941176 0 0 0 0 0.596078 0 0 0 0 0.266667 0 0 0 0.16691 0"/>
<feBlend mode="normal" in2="effect3_dropShadow_220_978" result="effect4_dropShadow_220_978"/>
<feColorMatrix in="SourceAlpha" type="matrix" values="0 0 0 0 0 0 0 0 0 0 0 0 0 0 0 0 0 0 127 0" result="hardAlpha"/>
<feOffset dy="1.46615"/>
<feGaussianBlur stdDeviation="1.12521"/>
<feColorMatrix type="matrix" values="0 0 0 0 0.941176 0 0 0 0 0.596078 0 0 0 0 0.266667 0 0 0 0.201279 0"/>
<feBlend mode="normal" in2="effect4_dropShadow_220_978" result="effect5_dropShadow_220_978"/>
<feColorMatrix in="SourceAlpha" type="matrix" values="0 0 0 0 0 0 0 0 0 0 0 0 0 0 0 0 0 0 127 0" result="hardAlpha"/>
<feOffset dy="4.23237"/>
<feGaussianBlur stdDeviation="2.69332"/>
<feColorMatrix type="matrix" values="0 0 0 0 0.941176 0 0 0 0 0.596078 0 0 0 0 0.266667 0 0 0 0.28 0"/>
<feBlend mode="normal" in2="effect5_dropShadow_220_978" result="effect6_dropShadow_220_978"/>
<feBlend mode="normal" in="SourceGraphic" in2="effect6_dropShadow_220_978" result="shape"/>
</filter>
<filter id="filter11_dddddd_220_978" x="-12.7409" y="30.5997" width="33.3832" height="35.229" filterUnits="userSpaceOnUse" color-interpolation-filters="sRGB">
<feFlood flood-opacity="0" result="BackgroundImageFix"/>
<feColorMatrix in="SourceAlpha" type="matrix" values="0 0 0 0 0 0 0 0 0 0 0 0 0 0 0 0 0 0 127 0" result="hardAlpha"/>
<feOffset dy="0.480589"/>
<feGaussianBlur stdDeviation="0.148347"/>
<feColorMatrix type="matrix" values="0 0 0 0 0.588235 0 0 0 0 0.592157 0 0 0 0 0.788235 0 0 0 0.0787208 0"/>
<feBlend mode="normal" in2="BackgroundImageFix" result="effect1_dropShadow_220_978"/>
<feColorMatrix in="SourceAlpha" type="matrix" values="0 0 0 0 0 0 0 0 0 0 0 0 0 0 0 0 0 0 127 0" result="hardAlpha"/>
<feOffset dy="0.859518"/>
<feGaussianBlur stdDeviation="0.356497"/>
<feColorMatrix type="matrix" values="0 0 0 0 0.588235 0 0 0 0 0.592157 0 0 0 0 0.788235 0 0 0 0.11309 0"/>
<feBlend mode="normal" in2="effect1_dropShadow_220_978" result="effect2_dropShadow_220_978"/>
<feColorMatrix in="SourceAlpha" type="matrix" values="0 0 0 0 0 0 0 0 0 0 0 0 0 0 0 0 0 0 127 0" result="hardAlpha"/>
<feOffset dy="1.21231"/>
<feGaussianBlur stdDeviation="0.671253"/>
<feColorMatrix type="matrix" values="0 0 0 0 0.588235 0 0 0 0 0.592157 0 0 0 0 0.788235 0 0 0 0.14 0"/>
<feBlend mode="normal" in2="effect2_dropShadow_220_978" result="effect3_dropShadow_220_978"/>
<feColorMatrix in="SourceAlpha" type="matrix" values="0 0 0 0 0 0 0 0 0 0 0 0 0 0 0 0 0 0 127 0" result="hardAlpha"/>
<feOffset dy="1.71902"/>
<feGaussianBlur stdDeviation="1.1974"/>
<feColorMatrix type="matrix" values="0 0 0 0 0.588235 0 0 0 0 0.592157 0 0 0 0 0.788235 0 0 0 0.16691 0"/>
<feBlend mode="normal" in2="effect3_dropShadow_220_978" result="effect4_dropShadow_220_978"/>
<feColorMatrix in="SourceAlpha" type="matrix" values="0 0 0 0 0 0 0 0 0 0 0 0 0 0 0 0 0 0 127 0" result="hardAlpha"/>
<feOffset dy="2.91821"/>
<feGaussianBlur stdDeviation="2.2396"/>
<feColorMatrix type="matrix" values="0 0 0 0 0.588235 0 0 0 0 0.592157 0 0 0 0 0.788235 0 0 0 0.201279 0"/>
<feBlend mode="normal" in2="effect4_dropShadow_220_978" result="effect5_dropShadow_220_978"/>
<feColorMatrix in="SourceAlpha" type="matrix" values="0 0 0 0 0 0 0 0 0 0 0 0 0 0 0 0 0 0 127 0" result="hardAlpha"/>
<feOffset dy="8.42408"/>
<feGaussianBlur stdDeviation="5.36078"/>
<feColorMatrix type="matrix" values="0 0 0 0 0.587344 0 0 0 0 0.593231 0 0 0 0 0.7875 0 0 0 0.28 0"/>
<feBlend mode="normal" in2="effect5_dropShadow_220_978" result="effect6_dropShadow_220_978"/>
<feBlend mode="normal" in="SourceGraphic" in2="effect6_dropShadow_220_978" result="shape"/>
</filter>
<filter id="filter12_dddddd_220_978" x="-13.9535" y="3.50909" width="81.1857" height="81.1856" filterUnits="userSpaceOnUse" color-interpolation-filters="sRGB">
<feFlood flood-opacity="0" result="BackgroundImageFix"/>
<feColorMatrix in="SourceAlpha" type="matrix" values="0 0 0 0 0 0 0 0 0 0 0 0 0 0 0 0 0 0 127 0" result="hardAlpha"/>
<feOffset dy="0.979762"/>
<feGaussianBlur stdDeviation="0.302429"/>
<feColorMatrix type="matrix" values="0 0 0 0 0.0196078 0 0 0 0 0.254902 0 0 0 0 0.854902 0 0 0 0.0787208 0"/>
<feBlend mode="normal" in2="BackgroundImageFix" result="effect1_dropShadow_220_978"/>
<feColorMatrix in="SourceAlpha" type="matrix" values="0 0 0 0 0 0 0 0 0 0 0 0 0 0 0 0 0 0 127 0" result="hardAlpha"/>
<feOffset dy="1.75227"/>
<feGaussianBlur stdDeviation="0.726779"/>
<feColorMatrix type="matrix" values="0 0 0 0 0.0196078 0 0 0 0 0.254902 0 0 0 0 0.854902 0 0 0 0.11309 0"/>
<feBlend mode="normal" in2="effect1_dropShadow_220_978" result="effect2_dropShadow_220_978"/>
<feColorMatrix in="SourceAlpha" type="matrix" values="0 0 0 0 0 0 0 0 0 0 0 0 0 0 0 0 0 0 127 0" result="hardAlpha"/>
<feOffset dy="2.4715"/>
<feGaussianBlur stdDeviation="1.36846"/>
<feColorMatrix type="matrix" values="0 0 0 0 0.0196078 0 0 0 0 0.254902 0 0 0 0 0.854902 0 0 0 0.14 0"/>
<feBlend mode="normal" in2="effect2_dropShadow_220_978" result="effect3_dropShadow_220_978"/>
<feColorMatrix in="SourceAlpha" type="matrix" values="0 0 0 0 0 0 0 0 0 0 0 0 0 0 0 0 0 0 127 0" result="hardAlpha"/>
<feOffset dy="3.5045"/>
<feGaussianBlur stdDeviation="2.4411"/>
<feColorMatrix type="matrix" values="0 0 0 0 0.0196078 0 0 0 0 0.254902 0 0 0 0 0.854902 0 0 0 0.16691 0"/>
<feBlend mode="normal" in2="effect3_dropShadow_220_978" result="effect4_dropShadow_220_978"/>
<feColorMatrix in="SourceAlpha" type="matrix" values="0 0 0 0 0 0 0 0 0 0 0 0 0 0 0 0 0 0 127 0" result="hardAlpha"/>
<feOffset dy="5.94926"/>
<feGaussianBlur stdDeviation="4.56581"/>
<feColorMatrix type="matrix" values="0 0 0 0 0.0196078 0 0 0 0 0.254902 0 0 0 0 0.854902 0 0 0 0.201279 0"/>
<feBlend mode="normal" in2="effect4_dropShadow_220_978" result="effect5_dropShadow_220_978"/>
<feColorMatrix in="SourceAlpha" type="matrix" values="0 0 0 0 0 0 0 0 0 0 0 0 0 0 0 0 0 0 127 0" result="hardAlpha"/>
<feOffset dy="17.1739"/>
<feGaussianBlur stdDeviation="10.9288"/>
<feColorMatrix type="matrix" values="0 0 0 0 0.0196078 0 0 0 0 0.254902 0 0 0 0 0.854902 0 0 0 0.28 0"/>
<feBlend mode="normal" in2="effect5_dropShadow_220_978" result="effect6_dropShadow_220_978"/>
<feBlend mode="normal" in="SourceGraphic" in2="effect6_dropShadow_220_978" result="shape"/>
</filter>
<linearGradient id="paint0_linear_220_978" x1="52.3298" y1="-4.47656" x2="52.3298" y2="78.773" gradientUnits="userSpaceOnUse">
<stop stop-color="white"/>
<stop offset="1" stop-color="#B6CAFF" stop-opacity="0"/>
</linearGradient>
<linearGradient id="paint1_linear_220_978" x1="70.2433" y1="16.2861" x2="70.2433" y2="99.5357" gradientUnits="userSpaceOnUse">
<stop stop-color="white"/>
<stop offset="1" stop-color="#B6CAFF" stop-opacity="0"/>
</linearGradient>
<linearGradient id="paint2_linear_220_978" x1="-18.7075" y1="37.1487" x2="-18.7075" y2="120.398" gradientUnits="userSpaceOnUse">
<stop stop-color="white"/>
<stop offset="1" stop-color="#B6CAFF" stop-opacity="0"/>
</linearGradient>
<linearGradient id="paint3_linear_220_978" x1="-1.85518" y1="57.5217" x2="-1.85518" y2="140.771" gradientUnits="userSpaceOnUse">
<stop stop-color="white"/>
<stop offset="1" stop-color="#B6CAFF" stop-opacity="0"/>
</linearGradient>
<linearGradient id="paint4_linear_220_978" x1="-9.74746" y1="52.4026" x2="-9.74746" y2="135.652" gradientUnits="userSpaceOnUse">
<stop stop-color="white"/>
<stop offset="1" stop-color="#B6CAFF" stop-opacity="0"/>
</linearGradient>
<linearGradient id="paint5_linear_220_978" x1="8.16276" y1="73.1653" x2="8.16276" y2="156.415" gradientUnits="userSpaceOnUse">
<stop stop-color="white"/>
<stop offset="1" stop-color="#B6CAFF" stop-opacity="0"/>
</linearGradient>
<clipPath id="clip0_220_978">
<path d="M0 0H54V54H0V0Z" fill="white"/>
</clipPath>
<clipPath id="clip1_220_978">
<path d="M-3.02454 10.2077C-3.02454 3.05904 2.77059 -2.73608 9.91925 -2.73608H43.3597C50.5083 -2.73608 56.3035 3.05904 56.3035 10.2077V56.5919H-3.02454V10.2077Z" fill="white"/>
</clipPath>
</defs>
</svg>
