<svg width="482" height="208" viewBox="0 0 482 208" fill="none" xmlns="http://www.w3.org/2000/svg">
<rect width="39" height="40" fill="#310B67"/>
<rect y="88" width="39" height="40" fill="#DC4B83"/>
<rect y="168" width="39" height="40" fill="#902AB6"/>
<rect x="212" y="48" width="39" height="110" fill="#310B67"/>
<rect x="288" y="48" width="39" height="160" fill="#310B67"/>
<rect x="78" y="48" width="39" height="157" fill="#310B67"/>
<rect x="212" y="168" width="39" height="40" fill="#DC4B83"/>
<rect x="288" width="39" height="40" fill="#DC4B83"/>
<rect x="443" y="1" width="39" height="40" fill="#310B67"/>
<rect x="404" y="168" width="39" height="40" fill="#310B67"/>
<rect x="365" y="1" width="39" height="47" fill="#310B67"/>
<path d="M365 87H404V208C382.461 208 365 190.539 365 169V87Z" fill="#310B67"/>
<rect x="443" y="168" width="39" height="40" fill="#902AB6"/>
<rect x="365" y="48" width="39" height="39" fill="#DC4B83"/>
<rect x="404" y="48" width="39" height="39" fill="#DC4B83"/>
<rect x="39" y="128" width="39" height="40" fill="#310B67"/>
<rect x="39" y="48" width="39" height="40" fill="#902AB6"/>
<rect x="39" y="88" width="39" height="40" fill="#DC4B83"/>
<path d="M165.5 123.5L122 48H116V104L157.5 173H171.5L212.5 98.5V48H206.5L165.5 123.5Z" fill="#310B67"/>
</svg>
