<svg width="697" height="208" viewBox="0 0 697 208" fill="none" xmlns="http://www.w3.org/2000/svg">
<rect width="39" height="40" fill="#310B67"/>
<rect y="88" width="39" height="40" fill="#DC4B83"/>
<rect y="168" width="39" height="40" fill="#902AB6"/>
<rect x="212" y="48" width="39" height="110" fill="#310B67"/>
<rect x="288" y="48" width="39" height="160" fill="#310B67"/>
<rect x="78" y="48" width="39" height="160" fill="#310B67"/>
<rect x="212" y="168" width="39" height="40" fill="#DC4B83"/>
<rect x="288" width="39" height="40" fill="#DC4B83"/>
<rect x="443" y="1" width="39" height="40" fill="#310B67"/>
<rect x="404" y="168" width="39" height="40" fill="#310B67"/>
<rect x="365" y="1" width="39" height="47" fill="#310B67"/>
<path d="M365 87H404V208C382.461 208 365 190.539 365 169V87Z" fill="#310B67"/>
<rect x="443" y="168" width="39" height="40" fill="#902AB6"/>
<rect x="365" y="48" width="39" height="39" fill="#DC4B83"/>
<rect x="404" y="48" width="39" height="39" fill="#DC4B83"/>
<rect x="39" y="128" width="39" height="40" fill="#310B67"/>
<rect x="39" y="48" width="39" height="40" fill="#902AB6"/>
<rect x="39" y="88" width="39" height="40" fill="#DC4B83"/>
<path d="M165.5 123.5L122 48H116V104L157.5 173H171.5L212.5 98.5V48H206.5L165.5 123.5Z" fill="#310B67"/>
<path d="M484.048 73V50.6H487.728V60.008H498.128V50.6H501.808V73H498.128V63.272H487.728V73H484.048ZM520.516 69.992H521.22V73H519.396C517.156 73 516.388 72.008 516.388 70.376C515.3 72.04 513.636 73.192 510.98 73.192C507.396 73.192 504.9 71.432 504.9 68.392C504.9 65.032 507.332 63.144 511.908 63.144H516.036V62.152C516.036 60.328 514.724 59.208 512.452 59.208C510.404 59.208 509.028 60.168 508.772 61.608H505.38C505.732 58.408 508.484 56.424 512.612 56.424C516.964 56.424 519.46 58.504 519.46 62.376V68.936C519.46 69.768 519.812 69.992 520.516 69.992ZM516.036 66.28V65.704H511.748C509.604 65.704 508.42 66.504 508.42 68.168C508.42 69.544 509.572 70.504 511.46 70.504C514.34 70.504 516.004 68.808 516.036 66.28ZM526.334 73H523.102V56.616H527.262L532.958 69L538.526 56.616H542.59L542.622 73H539.39V61.736L534.206 73H531.518L526.334 61.736V73ZM495.312 91.176V84.616H498.768V101H495.312V94.216H487.152V101H483.696V84.616H487.152V91.176H495.312ZM509.941 101.192C504.789 101.192 501.557 97.864 501.557 92.84C501.557 87.784 504.789 84.424 509.621 84.424C514.357 84.424 517.525 87.432 517.621 92.232C517.621 92.648 517.589 93.096 517.525 93.544H505.173V93.768C505.269 96.552 507.029 98.376 509.749 98.376C511.861 98.376 513.397 97.32 513.877 95.496H517.333C516.757 98.728 514.005 101.192 509.941 101.192ZM505.301 91.016H514.037C513.749 88.584 512.053 87.208 509.653 87.208C507.445 87.208 505.557 88.68 505.301 91.016ZM540.634 107.4H537.242V101.128C531.578 100.936 527.994 97.768 527.994 92.808C527.994 87.912 531.61 84.712 537.242 84.488V79.112H540.634V84.488C546.298 84.712 549.882 87.848 549.882 92.808C549.882 97.704 546.266 100.936 540.634 101.128V107.4ZM537.274 98.216V87.4C533.69 87.528 531.482 89.544 531.482 92.808C531.482 96.104 533.69 98.088 537.274 98.216ZM540.602 87.4V98.216C544.218 98.088 546.362 96.104 546.362 92.808C546.362 89.544 544.218 87.528 540.602 87.4ZM555.673 101H552.665V84.616H556.025V95.976L564.857 84.616H567.897V101H564.537V89.608L555.673 101ZM579.034 101.192C574.042 101.192 570.682 97.832 570.682 92.808C570.682 87.816 574.042 84.424 579.034 84.424C584.026 84.424 587.386 87.816 587.386 92.808C587.386 97.832 584.026 101.192 579.034 101.192ZM579.034 98.248C581.946 98.248 583.866 95.976 583.866 92.808C583.866 89.64 581.946 87.368 579.034 87.368C576.122 87.368 574.234 89.64 574.234 92.808C574.234 95.976 576.122 98.248 579.034 98.248ZM589.279 101H588.159V97.96H588.735C590.431 97.96 591.103 96.904 591.103 92.488V84.616H604.127V101H600.671V87.656H594.367V92.616C594.367 99.112 592.703 101 589.279 101ZM615.285 101.192C610.133 101.192 606.901 97.864 606.901 92.84C606.901 87.784 610.133 84.424 614.965 84.424C619.701 84.424 622.869 87.432 622.965 92.232C622.965 92.648 622.933 93.096 622.869 93.544H610.516V93.768C610.613 96.552 612.373 98.376 615.093 98.376C617.205 98.376 618.741 97.32 619.221 95.496H622.677C622.101 98.728 619.349 101.192 615.285 101.192ZM610.645 91.016H619.381C619.093 88.584 617.397 87.208 614.997 87.208C612.789 87.208 610.901 88.68 610.645 91.016ZM632.532 101H629.076V87.656H623.508V84.616H638.1V87.656H632.532V101ZM647.065 101.192C642.073 101.192 638.713 97.832 638.713 92.808C638.713 87.816 642.073 84.424 647.065 84.424C652.057 84.424 655.417 87.816 655.417 92.808C655.417 97.832 652.057 101.192 647.065 101.192ZM647.065 98.248C649.977 98.248 651.897 95.976 651.897 92.808C651.897 89.64 649.977 87.368 647.065 87.368C644.153 87.368 642.265 89.64 642.265 92.808C642.265 95.976 644.153 98.248 647.065 98.248ZM665.46 101H658.196V84.616H665.332C669.588 84.616 671.7 86.184 671.7 88.968C671.7 91.144 670.356 92.2 668.82 92.52C670.9 92.84 672.276 93.992 672.276 96.296C672.276 99.464 669.972 101 665.46 101ZM661.588 87.24V91.464H665.428C667.348 91.464 668.212 90.664 668.212 89.352C668.212 87.944 667.348 87.24 665.428 87.24H661.588ZM661.588 93.96V98.376H665.748C667.7 98.376 668.788 97.672 668.788 96.2C668.788 94.76 667.7 93.96 665.748 93.96H661.588ZM682.784 101.192C677.792 101.192 674.432 97.832 674.432 92.808C674.432 87.816 677.792 84.424 682.784 84.424C687.776 84.424 691.136 87.816 691.136 92.808C691.136 97.832 687.776 101.192 682.784 101.192ZM682.784 98.248C685.696 98.248 687.616 95.976 687.616 92.808C687.616 89.64 685.696 87.368 682.784 87.368C679.872 87.368 677.984 89.64 677.984 92.808C677.984 95.976 679.872 98.248 682.784 98.248Z" fill="#310B67"/>
</svg>
