<svg width="54" height="54" viewBox="0 0 54 54" fill="none" xmlns="http://www.w3.org/2000/svg">
<g clip-path="url(#clip0_144_489)">
<path d="M-3.02454 10.2077C-3.02454 3.05904 2.77059 -2.73608 9.91925 -2.73608H43.3597C50.5083 -2.73608 56.3035 3.05904 56.3035 10.2077V56.5919H-3.02454V10.2077Z" fill="#FEFEFF"/>
<g filter="url(#filter0_dddddd_144_489)">
<path d="M24.7281 32.7828C24.7541 30.9093 24.9687 29.5432 25.3721 28.6845C25.7754 27.8258 26.5365 26.889 27.6554 25.8742C28.7483 24.8854 29.5875 23.9682 30.173 23.1225C30.7584 22.2768 31.0512 21.3726 31.0512 20.4098C31.0512 19.2389 30.6609 18.2631 29.8802 17.4824C29.0996 16.7018 28.0067 16.3115 26.6016 16.3115C25.2485 16.3115 24.2076 16.6953 23.479 17.4629C22.7505 18.2305 22.217 19.0307 21.8787 19.8634L18.6001 18.4192C19.1726 16.884 20.1418 15.5764 21.5079 14.4965C22.8741 13.4166 24.5719 12.8767 26.6016 12.8767C29.2037 12.8767 31.2073 13.5988 32.6124 15.043C34.0176 16.4871 34.7201 18.224 34.7201 20.2537C34.7201 21.5027 34.4534 22.6346 33.92 23.6494C33.3866 24.6642 32.5344 25.7311 31.3634 26.85C30.0884 28.073 29.3208 29.0098 29.0606 29.6603C28.8003 30.3108 28.6572 31.3517 28.6312 32.7828H24.7281ZM26.6016 42.5407C25.847 42.5407 25.2029 42.274 24.6695 41.7406C24.1361 41.2071 23.8694 40.5631 23.8694 39.8085C23.8694 39.0539 24.1361 38.4099 24.6695 37.8764C25.2029 37.343 25.847 37.0763 26.6016 37.0763C27.3562 37.0763 28.0002 37.343 28.5336 37.8764C29.0671 38.4099 29.3338 39.0539 29.3338 39.8085C29.3338 40.5631 29.0671 41.2071 28.5336 41.7406C28.0002 42.274 27.3562 42.5407 26.6016 42.5407Z" fill="#6D28D9"/>
</g>
<path fill-rule="evenodd" clip-rule="evenodd" d="M45.033 6.75647H38.415C38.0395 6.75647 37.6795 6.90562 37.414 7.17112C37.1485 7.43662 36.9993 7.79671 36.9993 8.17218C36.9993 8.54765 37.1485 8.90775 37.414 9.17324C37.6795 9.43874 38.0395 9.5879 38.415 9.5879H44.5724V16.4106C44.5724 16.7861 44.7216 17.1462 44.9871 17.4117C45.2526 17.6772 45.6127 17.8263 45.9881 17.8263C46.3636 17.8263 46.7237 17.6772 46.9892 17.4117C47.2547 17.1462 47.4038 16.7861 47.4038 16.4106V9.21265C47.413 8.57316 47.1688 7.95601 46.7247 7.49586C46.2805 7.03571 45.6724 6.76992 45.033 6.75647V6.75647ZM7.88372 17.6899C8.25781 17.6854 8.61533 17.5349 8.87987 17.2703C9.14441 17.0058 9.29499 16.6483 9.29942 16.2742V9.5879H15.0816C15.4571 9.5879 15.8172 9.43874 16.0826 9.17324C16.3481 8.90775 16.4973 8.54765 16.4973 8.17218C16.4973 7.79671 16.3481 7.43662 16.0826 7.17112C15.8172 6.90562 15.4571 6.75647 15.0816 6.75647H8.83889C8.19948 6.76992 7.59135 7.03571 7.14718 7.49586C6.70302 7.95601 6.45887 8.57316 6.46802 9.21265V16.2742C6.46802 17.0554 7.10253 17.6899 7.88372 17.6899ZM14.8428 44.8614H9.29942V38.5844C9.29942 38.209 9.15026 37.8489 8.88477 37.5834C8.61927 37.3179 8.25918 37.1687 7.88372 37.1687C7.50825 37.1687 7.14816 37.3179 6.88267 37.5834C6.61717 37.8489 6.46802 38.209 6.46802 38.5844V45.2366C6.45887 45.8761 6.70302 46.4932 7.14718 46.9534C7.59135 47.4135 8.19948 47.6793 8.83889 47.6928H14.8428C15.2183 47.6928 15.5784 47.5436 15.8439 47.2781C16.1094 47.0126 16.2585 46.6525 16.2585 46.2771C16.2585 45.9016 16.1094 45.5415 15.8439 45.276C15.5784 45.0105 15.2183 44.8614 14.8428 44.8614V44.8614ZM45.9881 36.8276C45.6127 36.8276 45.2526 36.9768 44.9871 37.2423C44.7216 37.5077 44.5724 37.8678 44.5724 38.2433V44.8614H40.4106C40.0352 44.8614 39.6751 45.0105 39.4096 45.276C39.1441 45.5415 38.9949 45.9016 38.9949 46.2771C38.9949 46.6525 39.1441 47.0126 39.4096 47.2781C39.6751 47.5436 40.0352 47.6928 40.4106 47.6928H45.033C45.6724 47.6793 46.2805 47.4135 46.7247 46.9534C47.1688 46.4932 47.413 45.8761 47.4038 45.2366V38.2433C47.4038 37.8678 47.2547 37.5077 46.9892 37.2423C46.7237 36.9768 46.3636 36.8276 45.9881 36.8276V36.8276Z" fill="#6D28D9"/>
</g>
<defs>
<filter id="filter0_dddddd_144_489" x="-13.9535" y="3.50909" width="81.1857" height="81.1857" filterUnits="userSpaceOnUse" color-interpolation-filters="sRGB">
<feFlood flood-opacity="0" result="BackgroundImageFix"/>
<feColorMatrix in="SourceAlpha" type="matrix" values="0 0 0 0 0 0 0 0 0 0 0 0 0 0 0 0 0 0 127 0" result="hardAlpha"/>
<feOffset dy="0.979762"/>
<feGaussianBlur stdDeviation="0.302429"/>
<feColorMatrix type="matrix" values="0 0 0 0 0.0196078 0 0 0 0 0.254902 0 0 0 0 0.854902 0 0 0 0.0787208 0"/>
<feBlend mode="normal" in2="BackgroundImageFix" result="effect1_dropShadow_144_489"/>
<feColorMatrix in="SourceAlpha" type="matrix" values="0 0 0 0 0 0 0 0 0 0 0 0 0 0 0 0 0 0 127 0" result="hardAlpha"/>
<feOffset dy="1.75227"/>
<feGaussianBlur stdDeviation="0.726779"/>
<feColorMatrix type="matrix" values="0 0 0 0 0.0196078 0 0 0 0 0.254902 0 0 0 0 0.854902 0 0 0 0.11309 0"/>
<feBlend mode="normal" in2="effect1_dropShadow_144_489" result="effect2_dropShadow_144_489"/>
<feColorMatrix in="SourceAlpha" type="matrix" values="0 0 0 0 0 0 0 0 0 0 0 0 0 0 0 0 0 0 127 0" result="hardAlpha"/>
<feOffset dy="2.4715"/>
<feGaussianBlur stdDeviation="1.36846"/>
<feColorMatrix type="matrix" values="0 0 0 0 0.0196078 0 0 0 0 0.254902 0 0 0 0 0.854902 0 0 0 0.14 0"/>
<feBlend mode="normal" in2="effect2_dropShadow_144_489" result="effect3_dropShadow_144_489"/>
<feColorMatrix in="SourceAlpha" type="matrix" values="0 0 0 0 0 0 0 0 0 0 0 0 0 0 0 0 0 0 127 0" result="hardAlpha"/>
<feOffset dy="3.5045"/>
<feGaussianBlur stdDeviation="2.4411"/>
<feColorMatrix type="matrix" values="0 0 0 0 0.0196078 0 0 0 0 0.254902 0 0 0 0 0.854902 0 0 0 0.16691 0"/>
<feBlend mode="normal" in2="effect3_dropShadow_144_489" result="effect4_dropShadow_144_489"/>
<feColorMatrix in="SourceAlpha" type="matrix" values="0 0 0 0 0 0 0 0 0 0 0 0 0 0 0 0 0 0 127 0" result="hardAlpha"/>
<feOffset dy="5.94926"/>
<feGaussianBlur stdDeviation="4.56581"/>
<feColorMatrix type="matrix" values="0 0 0 0 0.0196078 0 0 0 0 0.254902 0 0 0 0 0.854902 0 0 0 0.201279 0"/>
<feBlend mode="normal" in2="effect4_dropShadow_144_489" result="effect5_dropShadow_144_489"/>
<feColorMatrix in="SourceAlpha" type="matrix" values="0 0 0 0 0 0 0 0 0 0 0 0 0 0 0 0 0 0 127 0" result="hardAlpha"/>
<feOffset dy="17.1739"/>
<feGaussianBlur stdDeviation="10.9288"/>
<feColorMatrix type="matrix" values="0 0 0 0 0.0196078 0 0 0 0 0.254902 0 0 0 0 0.854902 0 0 0 0.28 0"/>
<feBlend mode="normal" in2="effect5_dropShadow_144_489" result="effect6_dropShadow_144_489"/>
<feBlend mode="normal" in="SourceGraphic" in2="effect6_dropShadow_144_489" result="shape"/>
</filter>
<clipPath id="clip0_144_489">
<path d="M-3.02454 10.2077C-3.02454 3.05904 2.77059 -2.73608 9.91925 -2.73608H43.3597C50.5083 -2.73608 56.3035 3.05904 56.3035 10.2077V56.5919H-3.02454V10.2077Z" fill="white"/>
</clipPath>
</defs>
</svg>
